<mxfile host="app.diagrams.net" agent="Mozilla/5.0 (Windows NT 10.0; Win64; x64) AppleWebKit/537.36 (KHTML, like Gecko) Chrome/139.0.0.0 Safari/537.36" version="28.1.0">
  <diagram name="Page-1" id="KPAO7Qxrtv17MIFzy-_k">
    <mxGraphModel dx="2276" dy="763" grid="1" gridSize="10" guides="1" tooltips="1" connect="1" arrows="1" fold="1" page="1" pageScale="1" pageWidth="850" pageHeight="1100" background="none" math="0" shadow="0">
      <root>
        <mxCell id="0" />
        <mxCell id="1" parent="0" />
        <mxCell id="sWOYXhxfxUxqEofPekvH-3" style="edgeStyle=orthogonalEdgeStyle;rounded=0;orthogonalLoop=1;jettySize=auto;html=1;" parent="1" edge="1">
          <mxGeometry relative="1" as="geometry">
            <mxPoint x="80" y="165" as="sourcePoint" />
            <mxPoint x="80" y="185" as="targetPoint" />
          </mxGeometry>
        </mxCell>
        <mxCell id="sWOYXhxfxUxqEofPekvH-11" value="" style="whiteSpace=wrap;html=1;aspect=fixed;" parent="1" vertex="1">
          <mxGeometry x="360" y="380" width="340" height="340" as="geometry" />
        </mxCell>
        <mxCell id="sWOYXhxfxUxqEofPekvH-14" value="RED&amp;nbsp; BDR RTR&lt;div&gt;172.16.120.1&lt;/div&gt;" style="text;html=1;align=center;verticalAlign=middle;whiteSpace=wrap;rounded=0;" parent="1" vertex="1">
          <mxGeometry x="500" y="520" width="60" height="30" as="geometry" />
        </mxCell>
        <mxCell id="sWOYXhxfxUxqEofPekvH-15" value="" style="whiteSpace=wrap;html=1;aspect=fixed;" parent="1" vertex="1">
          <mxGeometry x="360" y="380" width="40" height="40" as="geometry" />
        </mxCell>
        <mxCell id="sWOYXhxfxUxqEofPekvH-16" value="E0" style="text;html=1;align=center;verticalAlign=middle;whiteSpace=wrap;rounded=0;" parent="1" vertex="1">
          <mxGeometry x="350" y="390" width="60" height="30" as="geometry" />
        </mxCell>
        <mxCell id="sWOYXhxfxUxqEofPekvH-19" value="E2" style="whiteSpace=wrap;html=1;aspect=fixed;" parent="1" vertex="1">
          <mxGeometry x="365" y="670" width="45" height="45" as="geometry" />
        </mxCell>
        <mxCell id="sWOYXhxfxUxqEofPekvH-20" value="Lo" style="whiteSpace=wrap;html=1;aspect=fixed;" parent="1" vertex="1">
          <mxGeometry x="670" y="685" width="30" height="30" as="geometry" />
        </mxCell>
        <mxCell id="sWOYXhxfxUxqEofPekvH-22" value="" style="endArrow=classic;html=1;rounded=0;entryX=1;entryY=0.5;entryDx=0;entryDy=0;" parent="1" target="sWOYXhxfxUxqEofPekvH-32" edge="1">
          <mxGeometry width="50" height="50" relative="1" as="geometry">
            <mxPoint x="360" y="400" as="sourcePoint" />
            <mxPoint x="200" y="400" as="targetPoint" />
          </mxGeometry>
        </mxCell>
        <mxCell id="sWOYXhxfxUxqEofPekvH-26" value="E1" style="rounded=0;whiteSpace=wrap;html=1;" parent="1" vertex="1">
          <mxGeometry x="660" y="380" width="40" height="40" as="geometry" />
        </mxCell>
        <mxCell id="sWOYXhxfxUxqEofPekvH-27" value="" style="endArrow=classic;html=1;rounded=0;exitX=0;exitY=0.75;exitDx=0;exitDy=0;entryX=1.013;entryY=0.594;entryDx=0;entryDy=0;entryPerimeter=0;" parent="1" source="sWOYXhxfxUxqEofPekvH-19" target="sWOYXhxfxUxqEofPekvH-33" edge="1">
          <mxGeometry width="50" height="50" relative="1" as="geometry">
            <mxPoint x="350" y="700" as="sourcePoint" />
            <mxPoint x="120" y="700" as="targetPoint" />
          </mxGeometry>
        </mxCell>
        <mxCell id="sWOYXhxfxUxqEofPekvH-28" value="" style="endArrow=classic;html=1;rounded=0;entryX=0;entryY=0.5;entryDx=0;entryDy=0;" parent="1" edge="1">
          <mxGeometry width="50" height="50" relative="1" as="geometry">
            <mxPoint x="700" y="695" as="sourcePoint" />
            <mxPoint x="1090" y="692.5" as="targetPoint" />
          </mxGeometry>
        </mxCell>
        <mxCell id="sWOYXhxfxUxqEofPekvH-29" value="" style="endArrow=classic;html=1;rounded=0;entryX=0;entryY=0.5;entryDx=0;entryDy=0;" parent="1" target="sWOYXhxfxUxqEofPekvH-30" edge="1">
          <mxGeometry width="50" height="50" relative="1" as="geometry">
            <mxPoint x="700" y="399.5" as="sourcePoint" />
            <mxPoint x="900" y="400" as="targetPoint" />
          </mxGeometry>
        </mxCell>
        <mxCell id="sWOYXhxfxUxqEofPekvH-30" value="RED-IPS&lt;div&gt;RTR&lt;/div&gt;" style="whiteSpace=wrap;html=1;aspect=fixed;" parent="1" vertex="1">
          <mxGeometry x="1200" y="330" width="140" height="140" as="geometry" />
        </mxCell>
        <mxCell id="sWOYXhxfxUxqEofPekvH-32" value="" style="whiteSpace=wrap;html=1;aspect=fixed;" parent="1" vertex="1">
          <mxGeometry x="-90" y="365" width="80" height="80" as="geometry" />
        </mxCell>
        <mxCell id="sWOYXhxfxUxqEofPekvH-33" value="red-scr" style="whiteSpace=wrap;html=1;aspect=fixed;" parent="1" vertex="1">
          <mxGeometry x="-80" y="652.5" width="80" height="80" as="geometry" />
        </mxCell>
        <mxCell id="sWOYXhxfxUxqEofPekvH-34" value="172.16.120.1/29" style="text;html=1;align=center;verticalAlign=middle;whiteSpace=wrap;rounded=0;" parent="1" vertex="1">
          <mxGeometry x="280" y="380" width="60" height="30" as="geometry" />
        </mxCell>
        <mxCell id="sWOYXhxfxUxqEofPekvH-35" value="&quot;INTERNET&quot;" style="text;html=1;align=center;verticalAlign=middle;whiteSpace=wrap;rounded=0;" parent="1" vertex="1">
          <mxGeometry x="220" y="399" width="60" height="30" as="geometry" />
        </mxCell>
        <mxCell id="sWOYXhxfxUxqEofPekvH-36" value="172.16.120.2/29" style="text;html=1;align=center;verticalAlign=middle;whiteSpace=wrap;rounded=0;" parent="1" vertex="1">
          <mxGeometry x="6" y="382" width="60" height="30" as="geometry" />
        </mxCell>
        <mxCell id="sWOYXhxfxUxqEofPekvH-37" value="172.16.120.10/29" style="text;html=1;align=center;verticalAlign=middle;whiteSpace=wrap;rounded=0;" parent="1" vertex="1">
          <mxGeometry x="715" y="378" width="60" height="30" as="geometry" />
        </mxCell>
        <mxCell id="sWOYXhxfxUxqEofPekvH-41" value="172.16.120.9/29" style="text;html=1;align=center;verticalAlign=middle;whiteSpace=wrap;rounded=0;" parent="1" vertex="1">
          <mxGeometry x="1105" y="376" width="60" height="30" as="geometry" />
        </mxCell>
        <mxCell id="sWOYXhxfxUxqEofPekvH-42" value="&quot;REDNET&quot;" style="text;html=1;align=center;verticalAlign=middle;whiteSpace=wrap;rounded=0;" parent="1" vertex="1">
          <mxGeometry x="820" y="395" width="60" height="30" as="geometry" />
        </mxCell>
        <mxCell id="sWOYXhxfxUxqEofPekvH-43" value="&quot;DMZ&quot;" style="text;html=1;align=center;verticalAlign=middle;whiteSpace=wrap;rounded=0;" parent="1" vertex="1">
          <mxGeometry x="150" y="699" width="60" height="30" as="geometry" />
        </mxCell>
        <mxCell id="sWOYXhxfxUxqEofPekvH-44" value="172.16.101.30/27" style="text;html=1;align=center;verticalAlign=middle;whiteSpace=wrap;rounded=0;" parent="1" vertex="1">
          <mxGeometry x="280" y="678" width="60" height="30" as="geometry" />
        </mxCell>
        <mxCell id="sWOYXhxfxUxqEofPekvH-45" value="172.16.101.29/27" style="text;html=1;align=center;verticalAlign=middle;whiteSpace=wrap;rounded=0;" parent="1" vertex="1">
          <mxGeometry x="19" y="677" width="60" height="30" as="geometry" />
        </mxCell>
        <mxCell id="sWOYXhxfxUxqEofPekvH-47" value="127.0.0.1/8" style="text;html=1;align=center;verticalAlign=middle;whiteSpace=wrap;rounded=0;" parent="1" vertex="1">
          <mxGeometry x="705" y="669" width="60" height="30" as="geometry" />
        </mxCell>
        <mxCell id="sWOYXhxfxUxqEofPekvH-49" value="E0" style="whiteSpace=wrap;html=1;aspect=fixed;" parent="1" vertex="1">
          <mxGeometry x="1200" y="375" width="40" height="40" as="geometry" />
        </mxCell>
        <mxCell id="sWOYXhxfxUxqEofPekvH-50" value="E1" style="whiteSpace=wrap;html=1;aspect=fixed;" parent="1" vertex="1">
          <mxGeometry x="1300" y="330" width="40" height="40" as="geometry" />
        </mxCell>
        <mxCell id="sWOYXhxfxUxqEofPekvH-52" value="Lo" style="whiteSpace=wrap;html=1;aspect=fixed;" parent="1" vertex="1">
          <mxGeometry x="1300" y="429" width="40" height="40" as="geometry" />
        </mxCell>
        <mxCell id="sWOYXhxfxUxqEofPekvH-53" value="" style="endArrow=classic;html=1;rounded=0;" parent="1" edge="1">
          <mxGeometry width="50" height="50" relative="1" as="geometry">
            <mxPoint x="1340" y="448.5" as="sourcePoint" />
            <mxPoint x="1500" y="449" as="targetPoint" />
          </mxGeometry>
        </mxCell>
        <mxCell id="sWOYXhxfxUxqEofPekvH-54" value="" style="endArrow=classic;html=1;rounded=0;" parent="1" edge="1">
          <mxGeometry width="50" height="50" relative="1" as="geometry">
            <mxPoint x="1340" y="349.5" as="sourcePoint" />
            <mxPoint x="1680" y="350" as="targetPoint" />
          </mxGeometry>
        </mxCell>
        <mxCell id="sWOYXhxfxUxqEofPekvH-55" value="172.16.120.18/29" style="text;html=1;align=center;verticalAlign=middle;whiteSpace=wrap;rounded=0;" parent="1" vertex="1">
          <mxGeometry x="1358" y="330" width="60" height="30" as="geometry" />
        </mxCell>
        <mxCell id="sWOYXhxfxUxqEofPekvH-56" value="127.0.0.1/8" style="text;html=1;align=center;verticalAlign=middle;resizable=0;points=[];autosize=1;strokeColor=none;fillColor=none;" parent="1" vertex="1">
          <mxGeometry x="1330" y="428" width="80" height="30" as="geometry" />
        </mxCell>
        <mxCell id="sWOYXhxfxUxqEofPekvH-57" value="&quot;REDNET&quot;" style="text;html=1;align=center;verticalAlign=middle;resizable=0;points=[];autosize=1;strokeColor=none;fillColor=none;" parent="1" vertex="1">
          <mxGeometry x="1366" y="347" width="80" height="30" as="geometry" />
        </mxCell>
        <mxCell id="sWOYXhxfxUxqEofPekvH-60" value="" style="endArrow=none;html=1;rounded=0;" parent="1" edge="1">
          <mxGeometry width="50" height="50" relative="1" as="geometry">
            <mxPoint x="1670" y="390" as="sourcePoint" />
            <mxPoint x="1670" y="350" as="targetPoint" />
          </mxGeometry>
        </mxCell>
        <mxCell id="sWOYXhxfxUxqEofPekvH-62" value="" style="endArrow=none;html=1;rounded=0;" parent="1" edge="1">
          <mxGeometry width="50" height="50" relative="1" as="geometry">
            <mxPoint x="1560" y="390" as="sourcePoint" />
            <mxPoint x="1780" y="390" as="targetPoint" />
          </mxGeometry>
        </mxCell>
        <mxCell id="sWOYXhxfxUxqEofPekvH-63" value=".17-.22" style="text;html=1;align=center;verticalAlign=middle;resizable=0;points=[];autosize=1;strokeColor=none;fillColor=none;" parent="1" vertex="1">
          <mxGeometry x="1683" y="366" width="60" height="30" as="geometry" />
        </mxCell>
        <mxCell id="sWOYXhxfxUxqEofPekvH-64" value="172.16.120.18/29" style="text;html=1;align=center;verticalAlign=middle;resizable=0;points=[];autosize=1;strokeColor=none;fillColor=none;" parent="1" vertex="1">
          <mxGeometry x="1540" y="368" width="120" height="30" as="geometry" />
        </mxCell>
        <mxCell id="sWOYXhxfxUxqEofPekvH-65" value="" style="endArrow=none;html=1;rounded=0;exitX=0.454;exitY=0;exitDx=0;exitDy=0;exitPerimeter=0;" parent="1" source="sWOYXhxfxUxqEofPekvH-67" edge="1">
          <mxGeometry width="50" height="50" relative="1" as="geometry">
            <mxPoint x="1760" y="425" as="sourcePoint" />
            <mxPoint x="1760" y="395" as="targetPoint" />
          </mxGeometry>
        </mxCell>
        <mxCell id="sWOYXhxfxUxqEofPekvH-67" value="RED-POP&lt;div&gt;&lt;br&gt;&lt;/div&gt;" style="whiteSpace=wrap;html=1;aspect=fixed;" parent="1" vertex="1">
          <mxGeometry x="1700" y="458" width="130" height="130" as="geometry" />
        </mxCell>
        <mxCell id="sWOYXhxfxUxqEofPekvH-68" value="E0" style="whiteSpace=wrap;html=1;aspect=fixed;" parent="1" vertex="1">
          <mxGeometry x="1743" y="458" width="30" height="30" as="geometry" />
        </mxCell>
        <mxCell id="sWOYXhxfxUxqEofPekvH-69" value="172.16.120.17" style="text;html=1;align=center;verticalAlign=middle;resizable=0;points=[];autosize=1;strokeColor=none;fillColor=none;rotation=-60;" parent="1" vertex="1">
          <mxGeometry x="1730" y="399" width="100" height="30" as="geometry" />
        </mxCell>
        <mxCell id="sWOYXhxfxUxqEofPekvH-70" value="E2" style="whiteSpace=wrap;html=1;aspect=fixed;" parent="1" vertex="1">
          <mxGeometry x="1790" y="548" width="40" height="40" as="geometry" />
        </mxCell>
        <mxCell id="sWOYXhxfxUxqEofPekvH-71" value="E1" style="whiteSpace=wrap;html=1;aspect=fixed;" parent="1" vertex="1">
          <mxGeometry x="1790" y="458" width="40" height="40" as="geometry" />
        </mxCell>
        <mxCell id="sWOYXhxfxUxqEofPekvH-72" value="" style="endArrow=classic;html=1;rounded=0;" parent="1" edge="1">
          <mxGeometry width="50" height="50" relative="1" as="geometry">
            <mxPoint x="1830" y="477.5" as="sourcePoint" />
            <mxPoint x="2210" y="480" as="targetPoint" />
          </mxGeometry>
        </mxCell>
        <mxCell id="sWOYXhxfxUxqEofPekvH-73" value="&quot;INTERNET&quot;" style="text;html=1;align=center;verticalAlign=middle;resizable=0;points=[];autosize=1;strokeColor=none;fillColor=none;rotation=-60;" parent="1" vertex="1">
          <mxGeometry x="1700" y="412" width="90" height="30" as="geometry" />
        </mxCell>
        <mxCell id="sWOYXhxfxUxqEofPekvH-76" value="" style="endArrow=classic;html=1;rounded=0;" parent="1" edge="1">
          <mxGeometry width="50" height="50" relative="1" as="geometry">
            <mxPoint x="1820" y="567.5" as="sourcePoint" />
            <mxPoint x="2010" y="568" as="targetPoint" />
          </mxGeometry>
        </mxCell>
        <mxCell id="sWOYXhxfxUxqEofPekvH-77" value="172.16.182.126/27" style="text;html=1;align=center;verticalAlign=middle;resizable=0;points=[];autosize=1;strokeColor=none;fillColor=none;" parent="1" vertex="1">
          <mxGeometry x="1820" y="458" width="120" height="30" as="geometry" />
        </mxCell>
        <mxCell id="sWOYXhxfxUxqEofPekvH-78" value="&quot;REDHOST&quot;" style="text;html=1;align=center;verticalAlign=middle;resizable=0;points=[];autosize=1;strokeColor=none;fillColor=none;" parent="1" vertex="1">
          <mxGeometry x="1832" y="475" width="90" height="30" as="geometry" />
        </mxCell>
        <mxCell id="sWOYXhxfxUxqEofPekvH-79" value="172.16.140.6/29" style="text;html=1;align=center;verticalAlign=middle;resizable=0;points=[];autosize=1;strokeColor=none;fillColor=none;" parent="1" vertex="1">
          <mxGeometry x="1821" y="543" width="110" height="30" as="geometry" />
        </mxCell>
        <mxCell id="sWOYXhxfxUxqEofPekvH-81" value="&quot;REDINTDMZ" style="text;html=1;align=center;verticalAlign=middle;resizable=0;points=[];autosize=1;strokeColor=none;fillColor=none;" parent="1" vertex="1">
          <mxGeometry x="1828" y="565" width="100" height="30" as="geometry" />
        </mxCell>
        <mxCell id="sWOYXhxfxUxqEofPekvH-82" value="Lo" style="whiteSpace=wrap;html=1;aspect=fixed;" parent="1" vertex="1">
          <mxGeometry x="1700" y="548" width="40" height="40" as="geometry" />
        </mxCell>
        <mxCell id="sWOYXhxfxUxqEofPekvH-83" value="" style="endArrow=none;html=1;rounded=0;" parent="1" edge="1">
          <mxGeometry width="50" height="50" relative="1" as="geometry">
            <mxPoint x="1538" y="573" as="sourcePoint" />
            <mxPoint x="1698" y="573" as="targetPoint" />
          </mxGeometry>
        </mxCell>
        <mxCell id="sWOYXhxfxUxqEofPekvH-86" value="127.0.0.1/8&lt;div&gt;120.0.0.3/32&lt;/div&gt;&lt;div&gt;::1/128&lt;/div&gt;" style="text;html=1;align=center;verticalAlign=middle;resizable=0;points=[];autosize=1;strokeColor=none;fillColor=none;" parent="1" vertex="1">
          <mxGeometry x="1610" y="520" width="90" height="60" as="geometry" />
        </mxCell>
        <mxCell id="sWOYXhxfxUxqEofPekvH-87" value="" style="endArrow=none;html=1;rounded=0;" parent="1" edge="1">
          <mxGeometry width="50" height="50" relative="1" as="geometry">
            <mxPoint x="2210" y="520" as="sourcePoint" />
            <mxPoint x="2210" y="480" as="targetPoint" />
          </mxGeometry>
        </mxCell>
        <mxCell id="sWOYXhxfxUxqEofPekvH-88" value="" style="endArrow=none;html=1;rounded=0;" parent="1" edge="1">
          <mxGeometry width="50" height="50" relative="1" as="geometry">
            <mxPoint x="2110" y="520" as="sourcePoint" />
            <mxPoint x="2520" y="520" as="targetPoint" />
          </mxGeometry>
        </mxCell>
        <mxCell id="sWOYXhxfxUxqEofPekvH-89" value="" style="endArrow=none;html=1;rounded=0;" parent="1" edge="1">
          <mxGeometry width="50" height="50" relative="1" as="geometry">
            <mxPoint x="2510" y="580" as="sourcePoint" />
            <mxPoint x="2510" y="520" as="targetPoint" />
          </mxGeometry>
        </mxCell>
        <mxCell id="sWOYXhxfxUxqEofPekvH-90" value=".106&lt;div&gt;red-host-1&lt;/div&gt;&lt;div&gt;port 22&lt;/div&gt;" style="ellipse;whiteSpace=wrap;html=1;aspect=fixed;" parent="1" vertex="1">
          <mxGeometry x="2460" y="580" width="90" height="90" as="geometry" />
        </mxCell>
        <mxCell id="sWOYXhxfxUxqEofPekvH-91" value="" style="endArrow=none;html=1;rounded=0;" parent="1" edge="1">
          <mxGeometry width="50" height="50" relative="1" as="geometry">
            <mxPoint x="2400" y="608" as="sourcePoint" />
            <mxPoint x="2400" y="528" as="targetPoint" />
          </mxGeometry>
        </mxCell>
        <mxCell id="sWOYXhxfxUxqEofPekvH-92" value=".110" style="ellipse;whiteSpace=wrap;html=1;aspect=fixed;" parent="1" vertex="1">
          <mxGeometry x="2347" y="607" width="113" height="113" as="geometry" />
        </mxCell>
        <mxCell id="sWOYXhxfxUxqEofPekvH-93" value="" style="endArrow=none;html=1;rounded=0;" parent="1" edge="1">
          <mxGeometry width="50" height="50" relative="1" as="geometry">
            <mxPoint x="2280" y="593" as="sourcePoint" />
            <mxPoint x="2280" y="523" as="targetPoint" />
          </mxGeometry>
        </mxCell>
        <mxCell id="sWOYXhxfxUxqEofPekvH-94" value=".114&lt;div&gt;red-host-3&lt;/div&gt;&lt;div&gt;port 22&lt;/div&gt;&lt;div&gt;&lt;br&gt;&lt;/div&gt;" style="ellipse;whiteSpace=wrap;html=1;aspect=fixed;" parent="1" vertex="1">
          <mxGeometry x="2220" y="598" width="110" height="110" as="geometry" />
        </mxCell>
        <mxCell id="sWOYXhxfxUxqEofPekvH-95" value=".118&lt;div&gt;red-host-4&lt;/div&gt;&lt;div&gt;port 22&lt;/div&gt;" style="ellipse;whiteSpace=wrap;html=1;aspect=fixed;" parent="1" vertex="1">
          <mxGeometry x="2110" y="580" width="100" height="100" as="geometry" />
        </mxCell>
        <mxCell id="sWOYXhxfxUxqEofPekvH-97" value="" style="endArrow=none;html=1;rounded=0;" parent="1" edge="1">
          <mxGeometry width="50" height="50" relative="1" as="geometry">
            <mxPoint x="2150" y="580" as="sourcePoint" />
            <mxPoint x="2150" y="520" as="targetPoint" />
          </mxGeometry>
        </mxCell>
        <mxCell id="In35oH9pr9J_KL5dSFsw-1" value="" style="endArrow=none;html=1;rounded=0;" edge="1" parent="1">
          <mxGeometry width="50" height="50" relative="1" as="geometry">
            <mxPoint x="2010" y="699" as="sourcePoint" />
            <mxPoint x="2010" y="569" as="targetPoint" />
          </mxGeometry>
        </mxCell>
        <mxCell id="In35oH9pr9J_KL5dSFsw-2" value="RED-POP2" style="whiteSpace=wrap;html=1;aspect=fixed;" vertex="1" parent="1">
          <mxGeometry x="1940" y="700" width="140" height="140" as="geometry" />
        </mxCell>
        <mxCell id="In35oH9pr9J_KL5dSFsw-3" value="E0" style="whiteSpace=wrap;html=1;aspect=fixed;" vertex="1" parent="1">
          <mxGeometry x="1993.5" y="700" width="33" height="33" as="geometry" />
        </mxCell>
        <mxCell id="In35oH9pr9J_KL5dSFsw-4" value="172.16.140.5/29" style="text;html=1;align=center;verticalAlign=middle;resizable=0;points=[];autosize=1;strokeColor=none;fillColor=none;rotation=-30;" vertex="1" parent="1">
          <mxGeometry x="1910" y="630" width="110" height="30" as="geometry" />
        </mxCell>
        <mxCell id="In35oH9pr9J_KL5dSFsw-5" value="E1" style="whiteSpace=wrap;html=1;aspect=fixed;" vertex="1" parent="1">
          <mxGeometry x="2050" y="810" width="30" height="30" as="geometry" />
        </mxCell>
        <mxCell id="In35oH9pr9J_KL5dSFsw-6" value="" style="endArrow=classic;html=1;rounded=0;" edge="1" parent="1">
          <mxGeometry width="50" height="50" relative="1" as="geometry">
            <mxPoint x="2080" y="824.5" as="sourcePoint" />
            <mxPoint x="2330" y="830" as="targetPoint" />
          </mxGeometry>
        </mxCell>
        <mxCell id="In35oH9pr9J_KL5dSFsw-8" value="172.16.140.62/27" style="text;html=1;align=center;verticalAlign=middle;resizable=0;points=[];autosize=1;strokeColor=none;fillColor=none;" vertex="1" parent="1">
          <mxGeometry x="2070" y="798" width="120" height="30" as="geometry" />
        </mxCell>
        <mxCell id="In35oH9pr9J_KL5dSFsw-9" value="&quot;REDINTDMZ2" style="text;html=1;align=center;verticalAlign=middle;resizable=0;points=[];autosize=1;strokeColor=none;fillColor=none;" vertex="1" parent="1">
          <mxGeometry x="2120" y="828" width="110" height="30" as="geometry" />
        </mxCell>
        <mxCell id="In35oH9pr9J_KL5dSFsw-10" value="127.0.0.1/8" style="text;html=1;align=center;verticalAlign=middle;resizable=0;points=[];autosize=1;strokeColor=none;fillColor=none;" vertex="1" parent="1">
          <mxGeometry x="1848" y="810" width="80" height="30" as="geometry" />
        </mxCell>
        <mxCell id="In35oH9pr9J_KL5dSFsw-11" value="L0" style="whiteSpace=wrap;html=1;aspect=fixed;" vertex="1" parent="1">
          <mxGeometry x="1943.5" y="800" width="38" height="38" as="geometry" />
        </mxCell>
        <mxCell id="In35oH9pr9J_KL5dSFsw-12" value="" style="endArrow=none;html=1;rounded=0;entryX=0.007;entryY=0.929;entryDx=0;entryDy=0;entryPerimeter=0;" edge="1" parent="1">
          <mxGeometry width="50" height="50" relative="1" as="geometry">
            <mxPoint x="1770" y="830" as="sourcePoint" />
            <mxPoint x="1939.9999999999995" y="830.06" as="targetPoint" />
          </mxGeometry>
        </mxCell>
      </root>
    </mxGraphModel>
  </diagram>
</mxfile>
